<svg width="55" height="24" viewBox="0 0 55 24" fill="none" xmlns="http://www.w3.org/2000/svg">
<g clip-path="url(#clip0_2085_17)">
<path d="M10.2985 4.91855C9.80916 4.52148 9.31702 4.22508 8.82768 4.03215C8.33834 3.842 7.86298 3.74413 7.4016 3.74413C6.81999 3.74413 6.34463 3.88115 5.97553 4.15798C5.60643 4.4348 5.42467 4.79272 5.42467 5.23732C5.42467 5.5449 5.51695 5.79656 5.7015 5.9951C5.88605 6.19363 6.12653 6.36699 6.42572 6.5124C6.72492 6.6578 7.06046 6.78363 7.43796 6.89268C7.81265 6.99894 8.18455 7.11638 8.55365 7.23662C10.0245 7.72596 11.101 8.38307 11.7833 9.20236C12.4656 10.0217 12.8067 11.0926 12.8067 12.4096C12.8067 13.2988 12.6585 14.1041 12.3593 14.8228C12.0601 15.5442 11.6239 16.1594 11.0479 16.6739C10.4719 17.1884 9.76721 17.5854 8.93394 17.8679C8.09786 18.1503 7.15274 18.2929 6.09577 18.2929C3.90353 18.2929 1.87347 17.6414 0.00279236 16.3383L1.93498 12.706C2.60887 13.3044 3.27438 13.749 3.93428 14.0398C4.59419 14.3306 5.24571 14.476 5.88885 14.476C6.62425 14.476 7.17231 14.3083 7.53303 13.9699C7.89374 13.6344 8.0727 13.2485 8.0727 12.8207C8.0727 12.5606 8.02796 12.3341 7.93568 12.144C7.84341 11.9538 7.68962 11.7749 7.4771 11.6155C7.26179 11.4533 6.98217 11.3051 6.63823 11.1681C6.2943 11.0311 5.87487 10.8773 5.38553 10.7095C4.80391 10.525 4.23068 10.3237 3.67144 10.1C3.11219 9.87905 2.61447 9.58265 2.17826 9.21355C1.74204 8.84445 1.38972 8.38307 1.12128 7.82383C0.852845 7.26458 0.718626 6.55714 0.718626 5.69869C0.718626 4.84025 0.861233 4.0629 1.14365 3.36385C1.42607 2.66759 1.82593 2.0692 2.33764 1.57147C2.85215 1.07374 3.4785 0.685064 4.2223 0.411034C4.96609 0.134207 5.79657 -0.00280762 6.71653 -0.00280762C7.57497 -0.00280762 8.47256 0.11743 9.4065 0.352313C10.3404 0.589992 11.238 0.93952 12.0965 1.3981L10.3041 4.91575L10.2985 4.91855Z" fill="white"/>
<path d="M52.1664 4.91855C51.677 4.52148 51.1849 4.22508 50.6956 4.03215C50.2062 3.842 49.7309 3.74413 49.2695 3.74413C48.6879 3.74413 48.2125 3.88115 47.8434 4.15798C47.4743 4.4348 47.2925 4.79272 47.2925 5.23732C47.2925 5.5449 47.3848 5.79656 47.5694 5.9951C47.7539 6.19363 47.9944 6.36699 48.2936 6.5124C48.5928 6.6578 48.9283 6.78363 49.3058 6.89268C49.6805 6.99894 50.0524 7.11638 50.4215 7.23662C51.8923 7.72596 52.9689 8.38307 53.6512 9.20236C54.3334 10.0217 54.6746 11.0926 54.6746 12.4096C54.6746 13.2988 54.5264 14.1041 54.2272 14.8228C53.928 15.5442 53.4918 16.1594 52.9158 16.6739C52.3397 17.1884 51.6351 17.5854 50.8018 17.8679C49.9657 18.1503 49.0206 18.2929 47.9636 18.2929C45.7714 18.2929 43.7413 17.6414 41.8707 16.3383L43.8029 12.706C44.4767 13.3044 45.1422 13.749 45.8022 14.0398C46.4621 14.3306 47.1136 14.476 47.7567 14.476C48.4921 14.476 49.0402 14.3083 49.4009 13.9699C49.7616 13.6344 49.9406 13.2485 49.9406 12.8207C49.9406 12.5606 49.8958 12.3341 49.8036 12.144C49.7113 11.9538 49.5575 11.7749 49.345 11.6155C49.1297 11.4533 48.85 11.3051 48.5061 11.1681C48.1622 11.0311 47.7427 10.8773 47.2534 10.7095C46.6718 10.525 46.0986 10.3237 45.5393 10.1C44.9801 9.87905 44.4823 9.58265 44.0461 9.21355C43.6099 8.84445 43.2576 8.38307 42.9892 7.82383C42.7207 7.26458 42.5865 6.55714 42.5865 5.69869C42.5865 4.84025 42.7291 4.0629 43.0115 3.36385C43.2939 2.66759 43.6938 2.0692 44.2055 1.57147C44.72 1.07374 45.3464 0.685064 46.0902 0.411034C46.834 0.134207 47.6644 -0.00280762 48.5844 -0.00280762C49.4428 -0.00280762 50.3404 0.11743 51.2744 0.352313C52.2083 0.589992 53.1059 0.93952 53.9643 1.3981L52.172 4.91575L52.1664 4.91855Z" fill="white"/>
<path d="M18.2985 5.94196L15.4408 12.3565" stroke="white" stroke-width="0.75" stroke-miterlimit="10"/>
<path d="M39.231 5.94196L36.3761 12.3565" stroke="white" stroke-width="0.75" stroke-miterlimit="10"/>
<path d="M27.4477 0.483734V14.0007H32.85V17.8175H22.943V0.483734H27.4477Z" fill="white"/>
<path d="M2.69911 21.8062C2.61732 21.7419 2.53845 21.6923 2.45666 21.6601C2.37488 21.628 2.29893 21.6134 2.22298 21.6134C2.12659 21.6134 2.05064 21.6368 1.9893 21.6806C1.92796 21.7273 1.89875 21.7858 1.89875 21.8588C1.89875 21.9084 1.91336 21.9493 1.94549 21.9844C1.9747 22.0165 2.01559 22.0457 2.06525 22.0691C2.11491 22.0925 2.17041 22.1129 2.23175 22.1304C2.29309 22.148 2.35443 22.1655 2.41285 22.1859C2.65529 22.2677 2.83055 22.3729 2.94155 22.5072C3.05255 22.6416 3.10805 22.8169 3.10805 23.033C3.10805 23.1791 3.08468 23.3105 3.03502 23.4274C2.98537 23.5442 2.91526 23.6464 2.81887 23.7311C2.72248 23.8159 2.60856 23.8801 2.47127 23.9269C2.33398 23.9736 2.17917 23.997 2.00683 23.997C1.64754 23.997 1.31455 23.8889 1.00784 23.6756L1.32331 23.0798C1.43431 23.1762 1.54239 23.2492 1.65047 23.2988C1.75854 23.3456 1.8637 23.3719 1.97178 23.3719C2.09154 23.3719 2.18209 23.3456 2.24051 23.2901C2.29893 23.2346 2.32814 23.1732 2.32814 23.1031C2.32814 23.0593 2.31938 23.0243 2.30477 22.9921C2.29017 22.96 2.26388 22.9308 2.22883 22.9045C2.19377 22.8782 2.14704 22.8548 2.09154 22.8315C2.03604 22.8081 1.96593 22.7847 1.88707 22.7555C1.79067 22.7263 1.6972 22.6913 1.60665 22.6562C1.5161 22.6212 1.43431 22.5715 1.36129 22.5102C1.28826 22.4488 1.23276 22.3729 1.18895 22.2823C1.14513 22.1918 1.12176 22.0749 1.12176 21.9347C1.12176 21.7945 1.14513 21.666 1.19187 21.5521C1.2386 21.4382 1.30287 21.3388 1.38757 21.2571C1.47228 21.1753 1.57452 21.111 1.6972 21.0672C1.81988 21.0234 1.95425 21 2.10614 21C2.24635 21 2.3924 21.0204 2.54722 21.0584C2.69911 21.0964 2.84808 21.1548 2.98829 21.2308L2.69327 21.8062H2.69911Z" fill="white"/>
<path d="M6.06708 23.4274H5.0126L4.84318 23.921H4.0545L5.13528 21.0818H5.94148L7.02225 23.921H6.23358L6.06416 23.4274H6.06708ZM5.87137 22.8665L5.5413 21.9201L5.21123 22.8665H5.87429H5.87137Z" fill="white"/>
<path d="M8.83902 21.0818V23.2959H9.72409V23.921H8.10001V21.0818H8.83902Z" fill="white"/>
<path d="M11.9354 21.7069V23.921H11.1963V21.7069H10.5888V21.0818H12.54V21.7069H11.9324H11.9354Z" fill="white"/>
<path d="M16.3957 21.0818V23.2959H17.2808V23.921H15.6567V21.0818H16.3957Z" fill="white"/>
<path d="M19.1532 21.0818V22.627C19.1532 22.7088 19.1561 22.7935 19.1619 22.8811C19.1678 22.9688 19.1882 23.0476 19.2174 23.1177C19.2496 23.1878 19.2992 23.2463 19.3664 23.2901C19.4336 23.3339 19.53 23.3573 19.6527 23.3573C19.7754 23.3573 19.8717 23.3339 19.936 23.2901C20.0032 23.2463 20.0528 23.1878 20.085 23.1177C20.1171 23.0476 20.1376 22.9688 20.1434 22.8811C20.1492 22.7935 20.1522 22.7088 20.1522 22.627V21.0818H20.8853V22.7292C20.8853 23.1703 20.7831 23.4945 20.5816 23.699C20.38 23.9035 20.0675 24.0028 19.6497 24.0028C19.232 24.0028 18.9195 23.9006 18.715 23.699C18.5106 23.4945 18.4112 23.1732 18.4112 22.7292V21.0818H19.1503H19.1532Z" fill="white"/>
<path d="M24.6009 23.921H23.6808L22.9768 22.8286V23.921H22.2378V21.0818H23.3858C23.5435 21.0818 23.6808 21.1052 23.8005 21.1519C23.9174 21.1986 24.0167 21.2629 24.0926 21.3418C24.1686 21.4235 24.227 21.5141 24.265 21.6222C24.3029 21.7273 24.3234 21.8413 24.3234 21.961C24.3234 22.1772 24.2708 22.3524 24.1657 22.4868C24.0605 22.6212 23.9086 22.7117 23.7041 22.7584L24.598 23.9239L24.6009 23.921ZM22.9768 22.3495H23.117C23.2631 22.3495 23.3741 22.3203 23.4529 22.259C23.5318 22.1976 23.5698 22.1129 23.5698 21.999C23.5698 21.8851 23.5318 21.8004 23.4529 21.739C23.3741 21.6777 23.2631 21.6485 23.117 21.6485H22.9768V22.3495Z" fill="white"/>
<path d="M27.2794 21.7069H26.4031V22.1801H27.2327V22.8052H26.4031V23.2959H27.2794V23.921H25.6641V21.0818H27.2794V21.7069Z" fill="white"/>
<path d="M32.2134 21.8062C32.1316 21.7419 32.0527 21.6923 31.9709 21.6601C31.8892 21.628 31.8132 21.6134 31.7373 21.6134C31.6409 21.6134 31.5649 21.6368 31.5036 21.6806C31.4422 21.7273 31.413 21.7858 31.413 21.8588C31.413 21.9084 31.4276 21.9493 31.4598 21.9844C31.489 22.0165 31.5299 22.0457 31.5795 22.0691C31.6292 22.0925 31.6847 22.1129 31.746 22.1304C31.8074 22.148 31.8687 22.1655 31.9271 22.1859C32.1696 22.2677 32.3448 22.3729 32.4558 22.5072C32.5668 22.6416 32.6223 22.8169 32.6223 23.033C32.6223 23.1791 32.599 23.3105 32.5493 23.4274C32.4997 23.5442 32.4295 23.6464 32.3332 23.7311C32.2368 23.8159 32.1228 23.8801 31.9856 23.9269C31.8483 23.9736 31.6935 23.997 31.5211 23.997C31.1618 23.997 30.8288 23.8889 30.5221 23.6756L30.8376 23.0798C30.9486 23.1762 31.0567 23.2492 31.1647 23.2988C31.2728 23.3456 31.378 23.3719 31.4861 23.3719C31.6058 23.3719 31.6964 23.3456 31.7548 23.2901C31.8132 23.2346 31.8424 23.1732 31.8424 23.1031C31.8424 23.0593 31.8337 23.0243 31.8191 22.9921C31.8044 22.96 31.7782 22.9308 31.7431 22.9045C31.7081 22.8782 31.6613 22.8548 31.6058 22.8315C31.5503 22.8081 31.4802 22.7847 31.4014 22.7555C31.305 22.7263 31.2115 22.6913 31.1209 22.6562C31.0304 22.6212 30.9486 22.5715 30.8756 22.5102C30.8025 22.4488 30.747 22.3729 30.7032 22.2823C30.6594 22.1918 30.636 22.0749 30.636 21.9347C30.636 21.7945 30.6594 21.666 30.7062 21.5521C30.7529 21.4382 30.8171 21.3388 30.9019 21.2571C30.9866 21.1753 31.0888 21.111 31.2115 21.0672C31.3342 21.0234 31.4685 21 31.6204 21C31.7606 21 31.9067 21.0204 32.0615 21.0584C32.2134 21.0964 32.3624 21.1548 32.5026 21.2308L32.2076 21.8062H32.2134Z" fill="white"/>
<path d="M34.9182 21.7069V23.921H34.1792V21.7069H33.5716V21.0818H35.5228V21.7069H34.9153H34.9182Z" fill="white"/>
<path d="M36.4781 22.5014C36.4781 22.2911 36.5161 22.0954 36.5949 21.9114C36.6738 21.7303 36.7819 21.5696 36.9192 21.4352C37.0565 21.3009 37.223 21.1928 37.4158 21.1168C37.6085 21.0409 37.8188 21.0029 38.0496 21.0029C38.2804 21.0029 38.4878 21.0409 38.6835 21.1168C38.8763 21.1928 39.0428 21.298 39.183 21.4352C39.3232 21.5696 39.4312 21.7303 39.5101 21.9114C39.589 22.0925 39.627 22.2911 39.627 22.5014C39.627 22.7117 39.589 22.9104 39.5101 23.0915C39.4312 23.2726 39.3232 23.4332 39.183 23.5676C39.0428 23.7019 38.8763 23.81 38.6835 23.886C38.4907 23.9619 38.2804 23.9999 38.0496 23.9999C37.8188 23.9999 37.6056 23.9619 37.4158 23.886C37.223 23.81 37.0594 23.7019 36.9192 23.5676C36.7819 23.4332 36.6738 23.2726 36.5949 23.0915C36.5161 22.9104 36.4781 22.7117 36.4781 22.5014ZM37.2493 22.5014C37.2493 22.6153 37.2697 22.7176 37.3135 22.814C37.3573 22.9103 37.4128 22.9921 37.4859 23.0622C37.5589 23.1323 37.6436 23.1878 37.74 23.2258C37.8364 23.2638 37.9386 23.2842 38.0467 23.2842C38.1548 23.2842 38.257 23.2638 38.3534 23.2258C38.4498 23.1878 38.5345 23.1323 38.6104 23.0622C38.6835 22.9921 38.7419 22.9103 38.7857 22.814C38.8295 22.7176 38.85 22.6153 38.85 22.5014C38.85 22.3875 38.8295 22.2853 38.7857 22.1889C38.7419 22.0925 38.6835 22.0107 38.6104 21.9406C38.5374 21.8705 38.4498 21.815 38.3534 21.777C38.257 21.739 38.1548 21.7186 38.0467 21.7186C37.9386 21.7186 37.8364 21.739 37.74 21.777C37.6436 21.815 37.5589 21.8705 37.4859 21.9406C37.4128 22.0107 37.3544 22.0925 37.3135 22.1889C37.2726 22.2853 37.2493 22.3875 37.2493 22.5014Z" fill="white"/>
<path d="M43.2051 23.921H42.285L41.581 22.8286V23.921H40.842V21.0818H41.99C42.1477 21.0818 42.285 21.1052 42.4048 21.1519C42.5216 21.1986 42.6209 21.2629 42.6969 21.3418C42.7728 21.4235 42.8312 21.5141 42.8692 21.6222C42.9072 21.7273 42.9276 21.8413 42.9276 21.961C42.9276 22.1772 42.8751 22.3524 42.7699 22.4868C42.6647 22.6212 42.5128 22.7117 42.3084 22.7584L43.2022 23.9239L43.2051 23.921ZM41.581 22.3495H41.7212C41.8673 22.3495 41.9783 22.3203 42.0572 22.259C42.136 22.1976 42.174 22.1129 42.174 21.999C42.174 21.8851 42.136 21.8004 42.0572 21.739C41.9783 21.6777 41.8673 21.6485 41.7212 21.6485H41.581V22.3495Z" fill="white"/>
<path d="M46.0093 23.4274H44.9548L44.7854 23.921H43.9967L45.0775 21.0818H45.8837L46.9644 23.921H46.1758L46.0063 23.4274H46.0093ZM45.8136 22.8665L45.4835 21.9201L45.1534 22.8665H45.8165H45.8136Z" fill="white"/>
<path d="M49.424 22.332H50.8903C50.8903 22.4839 50.8845 22.6182 50.8728 22.7438C50.8611 22.8665 50.8348 22.9804 50.7968 23.0856C50.7443 23.2346 50.6712 23.366 50.5807 23.4799C50.4901 23.5939 50.385 23.6902 50.2623 23.7662C50.1396 23.8421 50.0052 23.9006 49.8621 23.9415C49.7161 23.9823 49.5642 24.0028 49.4035 24.0028C49.1815 24.0028 48.98 23.9677 48.7989 23.8947C48.6178 23.8217 48.46 23.7195 48.3286 23.588C48.1971 23.4566 48.0978 23.2988 48.0248 23.1148C47.9518 22.9308 47.9167 22.7263 47.9167 22.5014C47.9167 22.2765 47.9518 22.0779 48.0248 21.8938C48.0978 21.7098 48.1971 21.5521 48.3286 21.4206C48.46 21.2892 48.6207 21.1899 48.8047 21.1168C48.9916 21.0438 49.199 21.0088 49.4269 21.0088C49.7219 21.0088 49.9819 21.073 50.2068 21.2015C50.4317 21.3301 50.607 21.5287 50.7384 21.7974L50.0374 22.0866C49.9731 21.9318 49.8884 21.8179 49.7832 21.7507C49.6781 21.6835 49.5612 21.6485 49.4269 21.6485C49.3159 21.6485 49.2166 21.6689 49.126 21.7098C49.0355 21.7507 48.9595 21.8091 48.8953 21.888C48.831 21.9639 48.7813 22.0574 48.7434 22.1655C48.7083 22.2736 48.6879 22.3933 48.6879 22.5277C48.6879 22.6474 48.7025 22.7614 48.7346 22.8636C48.7667 22.9658 48.8135 23.0564 48.8748 23.1323C48.9362 23.2083 49.015 23.2667 49.1085 23.3076C49.202 23.3485 49.31 23.3689 49.4327 23.3689C49.5057 23.3689 49.5759 23.3602 49.643 23.3456C49.7102 23.328 49.7716 23.3018 49.8271 23.2667C49.8796 23.2316 49.9264 23.182 49.9614 23.1265C49.9965 23.0681 50.0198 22.998 50.0345 22.9162H49.4269V22.3437L49.424 22.332Z" fill="white"/>
<path d="M53.7266 21.7069H52.8503V22.1801H53.6799V22.8052H52.8503V23.2959H53.7266V23.921H52.1113V21.0818H53.7266V21.7069Z" fill="white"/>
</g>
<defs>
<clipPath id="clip0_2085_17">
<rect width="54.6718" height="24" fill="white"/>
</clipPath>
</defs>
</svg>
